<svg width="71" height="35" viewBox="0 0 71 35" fill="none" xmlns="http://www.w3.org/2000/svg">
<rect width="71" height="35" rx="5" fill="white"/>
<path d="M54.2614 17.7784C54.2626 24.2812 49.0049 29.5547 42.5137 29.5559C36.0254 29.5583 30.7636 24.2869 30.7617 17.7844V17.7784C30.7596 11.2752 36.0191 6.00162 42.5086 6C48.9976 5.99763 54.2599 11.2687 54.2615 17.7722C54.2614 17.7723 54.2614 17.776 54.2614 17.7784Z" fill="#F7981D"/>
<path d="M26.675 6.00206C20.2235 6.0436 15 11.3026 15 17.7775C15 24.2779 20.2639 29.553 26.7504 29.553C29.7932 29.553 32.5682 28.39 34.6561 26.4845L34.6557 26.4833H34.6573C35.0856 26.0933 35.4845 25.6723 35.8507 25.2222H33.4439C33.1221 24.8342 32.8298 24.4289 32.5675 24.0103H36.7188C36.9723 23.6053 37.1999 23.1839 37.4039 22.7491H31.8829C31.6944 22.3442 31.5308 21.9321 31.3916 21.5126H37.8952C38.288 20.3378 38.4999 19.0819 38.4999 17.7775C38.4999 16.9116 38.4058 16.0682 38.2294 15.2556H31.0464C31.1361 14.8374 31.2479 14.4236 31.3811 14.0191H37.888C37.7426 13.5868 37.5735 13.1664 37.3813 12.7575H31.8821C32.0803 12.334 32.3052 11.9203 32.5559 11.521H36.7047C36.4282 11.0801 36.123 10.659 35.7932 10.2602H33.48C33.8381 9.83832 34.2312 9.44063 34.6579 9.07133C32.5708 7.16501 29.7954 6.00195 26.7511 6.00195C26.7247 6.00206 26.6996 6.00206 26.675 6.00206Z" fill="#CB2026"/>
<path d="M30.9752 20.7762L31.1323 19.7108C31.0467 19.7108 30.9207 19.7471 30.8097 19.7471C30.3745 19.7471 30.326 19.5154 30.3543 19.3439L30.7059 17.1691H31.3676L31.5275 15.9899H30.9038L31.031 15.2575H29.7796C29.7525 15.2849 29.0408 19.3805 29.0408 19.8782C29.0408 20.6166 29.4538 20.9456 30.0375 20.9407C30.4936 20.9365 30.85 20.8102 30.9752 20.7762Z" fill="white"/>
<path d="M31.372 18.7444C31.372 20.5163 32.5383 20.9377 33.5326 20.9377C34.4507 20.9377 34.8539 20.7314 34.8539 20.7314L35.0748 19.5219C35.0748 19.5219 34.3769 19.832 33.7462 19.832C32.4031 19.832 32.6385 18.8277 32.6385 18.8277H35.1814C35.1814 18.8277 35.3448 18.0146 35.3448 17.6836C35.3448 16.858 34.9339 15.8512 33.5609 15.8512C32.3026 15.8515 31.372 17.2091 31.372 18.7444ZM33.5662 16.9734C34.2719 16.9734 34.1414 17.7686 34.1414 17.8328H32.7527C32.7522 17.7509 32.8835 16.9734 33.5662 16.9734Z" fill="white"/>
<path d="M41.4876 20.7762L41.7117 19.408C41.7117 19.408 41.0977 19.7181 40.6766 19.7181C39.7893 19.7181 39.4336 19.0374 39.4336 18.3092C39.4336 16.8284 40.197 16.0137 41.0476 16.0137C41.6847 16.0137 42.1965 16.373 42.1965 16.373L42.4005 15.0456C42.4005 15.0456 41.6419 14.7371 40.992 14.7371C39.5475 14.7371 38.1418 15.9915 38.1418 18.3514C38.1418 19.9138 38.9011 20.9476 40.394 20.9476C40.8158 20.9478 41.4876 20.7762 41.4876 20.7762Z" fill="white"/>
<path d="M24.0946 15.8705C23.2368 15.8705 22.5791 16.1463 22.5791 16.1463L22.3978 17.2266C22.3978 17.2266 22.9412 17.0062 23.7611 17.0062C24.227 17.0062 24.5673 17.0583 24.5673 17.4382C24.5673 17.6683 24.5257 17.7534 24.5257 17.7534C24.5257 17.7534 24.1588 17.7224 23.9884 17.7224C22.907 17.7224 21.7701 18.185 21.7701 19.581C21.7701 20.6799 22.5153 20.9325 22.9776 20.9325C23.8605 20.9325 24.2399 20.3589 24.261 20.3564L24.2198 20.836H25.3211L25.8128 17.3823C25.8128 15.9177 24.5374 15.8705 24.0946 15.8705ZM24.363 18.6811C24.3869 18.8922 24.2307 19.8813 23.4774 19.8813C23.089 19.8813 22.9877 19.5834 22.9877 19.4073C22.9877 19.0645 23.1738 18.6524 24.0909 18.6524C24.3037 18.6524 24.3267 18.6758 24.363 18.6811Z" fill="white"/>
<path d="M26.9838 20.9062C27.2652 20.9062 28.876 20.9785 28.876 19.3127C28.876 17.7552 27.3851 18.0625 27.3851 17.4367C27.3851 17.1263 27.6282 17.027 28.0722 17.027C28.2486 17.027 28.9272 17.0839 28.9272 17.0839L29.0855 15.9762C29.0855 15.9762 28.6463 15.8785 27.9317 15.8785C27.0053 15.8785 26.0666 16.2475 26.0666 17.5146C26.0666 18.9514 27.633 18.8061 27.633 19.4108C27.633 19.8145 27.1949 19.8477 26.8575 19.8477C26.2745 19.8477 25.7493 19.647 25.7468 19.6563L25.5801 20.7515C25.6093 20.7617 25.9338 20.9062 26.9838 20.9062Z" fill="white"/>
<path d="M51.8502 14.877L51.5809 16.5548C51.5809 16.5548 51.1097 15.9036 50.373 15.9036C49.2261 15.9036 48.271 17.2883 48.271 18.8801C48.271 19.9076 48.78 20.9132 49.8225 20.9132C50.5721 20.9132 50.9867 20.3896 50.9867 20.3896L50.9322 20.8365H52.149L53.1053 14.8743L51.8502 14.877ZM51.2696 18.1498C51.2696 18.8115 50.9418 19.6951 50.2639 19.6951C49.8134 19.6951 49.6031 19.3164 49.6031 18.7222C49.6031 17.7508 50.0383 17.1081 50.5873 17.1081C51.0383 17.1082 51.2696 17.4191 51.2696 18.1498Z" fill="white"/>
<path d="M17.3201 20.8417L18.0826 16.3404L18.1936 20.8417H19.0559L20.6638 16.3404L19.9513 20.8417H21.2318L22.2189 14.873H20.2381L19.0048 18.5346L18.9406 14.873H17.1154L16.1146 20.8417H17.3201Z" fill="white"/>
<path d="M36.596 20.8501C36.9601 18.7755 37.0275 17.09 37.8971 17.3973C38.0494 16.5947 38.1959 16.2843 38.3614 15.944C38.3614 15.944 38.2839 15.9275 38.1199 15.9275C37.5608 15.9275 37.1453 16.6945 37.1453 16.6945L37.2559 15.9904H36.0908L35.3113 20.8501H36.596Z" fill="white"/>
<path d="M44.374 15.8705C43.5161 15.8705 42.8589 16.1463 42.8589 16.1463L42.6781 17.2266C42.6781 17.2266 43.2202 17.0062 44.0409 17.0062C44.5064 17.0062 44.8475 17.0583 44.8475 17.4382C44.8475 17.6683 44.8055 17.7534 44.8055 17.7534C44.8055 17.7534 44.4386 17.7224 44.267 17.7224C43.185 17.7224 42.0495 18.185 42.0495 19.581C42.0495 20.6799 42.7951 20.9325 43.257 20.9325C44.1399 20.9325 44.5197 20.3589 44.5399 20.3564L44.4991 20.836H45.6012L46.0926 17.3823C46.093 15.9177 44.8181 15.8705 44.374 15.8705ZM44.6428 18.6811C44.6667 18.8922 44.5112 19.8813 43.7567 19.8813C43.3688 19.8813 43.2682 19.5834 43.2682 19.4073C43.2682 19.0645 43.4543 18.6524 44.3699 18.6524C44.5839 18.6524 44.6062 18.6758 44.6428 18.6811Z" fill="white"/>
<path d="M47.0985 20.8501C47.4631 18.7755 47.5305 17.09 48.4 17.3973C48.5523 16.5947 48.6988 16.2843 48.8652 15.944C48.8652 15.944 48.7864 15.9275 48.6234 15.9275C48.0627 15.9275 47.6485 16.6945 47.6485 16.6945L47.7599 15.9904H46.594L45.8141 20.8498H47.0986L47.0985 20.8501Z" fill="white"/>
</svg>
