<svg width="71" height="35" viewBox="0 0 71 35" fill="none" xmlns="http://www.w3.org/2000/svg">
<rect width="71" height="35" rx="5" fill="white"/>
<path d="M44.5397 23.7691C44.6123 23.8805 44.7361 23.9475 44.8693 23.9475H47.6914C47.8547 23.9475 48.0012 23.8464 48.0592 23.6937C48.4062 22.7787 48.6286 22.1957 48.7021 22.0074C48.8894 22.0074 49.7561 22.0085 50.6854 22.0099H50.7379C51.8059 22.0112 52.9405 22.0126 53.212 22.0126C53.2921 22.3555 53.4907 23.2635 53.5726 23.6378C53.6121 23.8186 53.7721 23.9473 53.9569 23.9473H56.4179C56.5371 23.9473 56.65 23.8932 56.7246 23.8003C56.799 23.7073 56.8275 23.5855 56.8021 23.4694L54.1257 11.3449C54.0858 11.1647 53.9262 11.0363 53.7415 11.0363H51.3374C50.3759 11.0363 49.8242 11.3569 49.4929 12.108L44.5094 23.395C44.4557 23.5171 44.4672 23.6575 44.5397 23.7691ZM51.5878 14.5191L51.8258 15.6351L52.6409 19.3634H49.7156H49.7154L51.5878 14.5191Z" fill="#2566AF"/>
<path d="M34.9607 23.3542C35.8893 23.6798 37.1861 23.8824 38.4292 23.8958C38.4307 23.8958 38.432 23.8958 38.4334 23.8958C41.9979 23.895 44.3176 22.2244 44.343 19.6397C44.3566 18.2185 43.4501 17.1437 41.5009 16.2618C40.3077 15.6822 39.5768 15.2973 39.5837 14.7078C39.5837 14.1779 40.2521 13.6416 41.5363 13.6414C41.5672 13.6409 41.6039 13.6406 41.6399 13.6406C42.7063 13.6406 43.4595 13.8824 43.9332 14.0642C44.0433 14.1065 44.1663 14.0972 44.2689 14.0388C44.3715 13.9805 44.4421 13.8793 44.4621 13.763L44.7804 11.8912C44.8132 11.698 44.699 11.5103 44.5124 11.4506C43.9271 11.2634 42.9808 11.0403 41.7955 11.0403C38.4358 11.0403 36.0763 12.7305 36.0575 15.149C36.0363 16.9399 37.7445 17.9391 39.032 18.535C40.3527 19.1441 40.7963 19.5339 40.7903 20.0795C40.781 20.9149 39.7316 21.2953 38.7604 21.2953C37.3781 21.2953 36.6332 21.0868 35.5794 20.6485C35.469 20.6025 35.3434 20.6095 35.2385 20.6674C35.1337 20.725 35.061 20.8275 35.0407 20.9455L34.7033 22.9164C34.6708 23.1057 34.7796 23.2907 34.9607 23.3542Z" fill="#2566AF"/>
<path d="M15.2602 11.7632C17.5132 12.5741 19.3562 13.8607 20.5899 15.4842C20.6662 15.5847 20.7833 15.6396 20.9032 15.6396C20.9584 15.6396 21.0142 15.628 21.0667 15.6041C21.234 15.5275 21.3261 15.345 21.288 15.165L20.6324 12.065C20.6309 12.0583 20.6294 12.0517 20.6276 12.0452C20.3919 11.1598 19.6455 11.0282 19.1046 11.0063C19.0995 11.0062 19.0944 11.006 19.0893 11.006L15.394 11C15.3938 11 15.3936 11 15.3934 11C15.2023 11 15.039 11.1373 15.006 11.3254C14.9729 11.5135 15.0802 11.6984 15.2602 11.7632Z" fill="#E6A540"/>
<path d="M28.9005 23.8025C28.9752 23.8911 29.0852 23.9421 29.2011 23.9421H31.9236C32.1153 23.9421 32.2792 23.8039 32.3113 23.6149L34.3802 11.4827C34.3997 11.3685 34.3678 11.2514 34.2931 11.1629C34.2184 11.0744 34.1085 11.0233 33.9926 11.0233H31.2681C31.0763 11.0233 30.9125 11.1616 30.8804 11.3506L28.8134 23.4827C28.794 23.597 28.8259 23.7143 28.9005 23.8025Z" fill="#2566AF"/>
<path d="M18.0227 13.8172C17.8875 13.7134 17.7012 13.7084 17.5609 13.8045C17.4205 13.9006 17.3577 14.0762 17.4056 14.2395L20.1599 23.6499C20.2089 23.8176 20.3627 23.9329 20.5373 23.9329C20.5374 23.9329 20.5377 23.9329 20.5377 23.9329L23.7096 23.9283C23.8665 23.9283 24.0084 23.8345 24.0704 23.6905L29.2767 11.5827C29.3289 11.4611 29.3167 11.3214 29.2438 11.211C29.1711 11.1005 29.0477 11.034 28.9154 11.034H28.9151L26.0511 11.0354C25.8895 11.0354 25.7441 11.1347 25.6851 11.2853L22.3344 19.845L21.974 18.5405C21.9693 18.5232 21.9632 18.5061 21.956 18.4896C21.4271 17.2621 20.0058 15.3412 18.0227 13.8172Z" fill="#2566AF"/>
</svg>
